<?xml version="1.0" encoding="UTF-8" standalone="no"?>
<!-- Created with Inkscape (http://www.inkscape.org/) -->

<svg
   version="1.1"
   id="svg1"
   width="662.16125"
   height="565.60168"
   viewBox="0 0 662.16125 565.60168"
   sodipodi:docname="upload_xl6etnyr6a6v2bd6av6ugvzum5.pdf"
   xmlns:inkscape="http://www.inkscape.org/namespaces/inkscape"
   xmlns:sodipodi="http://sodipodi.sourceforge.net/DTD/sodipodi-0.dtd"
   xmlns="http://www.w3.org/2000/svg"
   xmlns:svg="http://www.w3.org/2000/svg">
  <defs
     id="defs1">
    <clipPath
       clipPathUnits="userSpaceOnUse"
       id="clipPath9">
      <path
         d="M 61.371875,35.23125 H 489.39187 v 358.52 H 61.371875 Z"
         id="path9" />
    </clipPath>
    <clipPath
       clipPathUnits="userSpaceOnUse"
       id="clipPath12">
      <path
         d="M 61.371875,35.23125 H 489.39187 v 358.52 H 61.371875 Z"
         id="path12" />
    </clipPath>
    <clipPath
       clipPathUnits="userSpaceOnUse"
       id="clipPath15">
      <path
         d="M 61.371875,35.23125 H 489.39187 v 358.52 H 61.371875 Z"
         id="path15" />
    </clipPath>
    <clipPath
       clipPathUnits="userSpaceOnUse"
       id="clipPath18">
      <path
         d="M 61.371875,35.23125 H 489.39187 v 358.52 H 61.371875 Z"
         id="path18" />
    </clipPath>
    <clipPath
       clipPathUnits="userSpaceOnUse"
       id="clipPath21">
      <path
         d="M 61.371875,35.23125 H 489.39187 v 358.52 H 61.371875 Z"
         id="path21" />
    </clipPath>
    <clipPath
       clipPathUnits="userSpaceOnUse"
       id="clipPath24">
      <path
         d="M 61.371875,35.23125 H 489.39187 v 358.52 H 61.371875 Z"
         id="path24" />
    </clipPath>
    <clipPath
       clipPathUnits="userSpaceOnUse"
       id="clipPath27">
      <path
         d="M 61.371875,35.23125 H 489.39187 v 358.52 H 61.371875 Z"
         id="path27" />
    </clipPath>
    <pattern
       patternTransform="translate(0,424.20125)"
       patternUnits="userSpaceOnUse"
       x="0"
       y="0"
       width="72"
       height="72"
       id="pattern31">
      <path
         d="M 0,0 72,0 72,72 0,72 0,0 Z"
         style="fill:#90caf9;fill-opacity:1;fill-rule:nonzero;stroke:none"
         id="path30" />
      <path
         d="m -36,36 72,72 M -32,32 40,104 M -28,28 44,100 M -24,24 48,96 M -20,20 52,92 M -16,16 56,88 M -12,12 60,84 M -8,8 64,80 M -4,4 68,76 M 0,0 72,72 M 4,-4 76,68 M 8,-8 80,64 M 12,-12 84,60 M 16,-16 88,56 M 20,-20 92,52 M 24,-24 96,48 m -68,-76 72,72 m -68,-76 72,72 m -68,-76 72,72"
         style="fill:#90caf9;fill-opacity:1;fill-rule:nonzero;stroke:#000000;stroke-opacity:1;stroke-width:1;stroke-linecap:butt;stroke-linejoin:miter;stroke-miterlimit:10;stroke-dasharray:none"
         id="path31" />
    </pattern>
    <clipPath
       clipPathUnits="userSpaceOnUse"
       id="clipPath32">
      <path
         d="M 61.371875,35.23125 H 489.39187 v 358.52 H 61.371875 Z"
         id="path32" />
    </clipPath>
    <pattern
       patternTransform="translate(0,424.20125)"
       patternUnits="userSpaceOnUse"
       x="0"
       y="0"
       width="72"
       height="72"
       id="pattern35">
      <path
         d="M 0,0 72,0 72,72 0,72 0,0 Z"
         style="fill:#42a5f5;fill-opacity:1;fill-rule:nonzero;stroke:none"
         id="path34" />
      <path
         d="m -36,36 72,72 M -32,32 40,104 M -28,28 44,100 M -24,24 48,96 M -20,20 52,92 M -16,16 56,88 M -12,12 60,84 M -8,8 64,80 M -4,4 68,76 M 0,0 72,72 M 4,-4 76,68 M 8,-8 80,64 M 12,-12 84,60 M 16,-16 88,56 M 20,-20 92,52 M 24,-24 96,48 m -68,-76 72,72 m -68,-76 72,72 m -68,-76 72,72"
         style="fill:#42a5f5;fill-opacity:1;fill-rule:nonzero;stroke:#000000;stroke-opacity:1;stroke-width:1;stroke-linecap:butt;stroke-linejoin:miter;stroke-miterlimit:10;stroke-dasharray:none"
         id="path35" />
    </pattern>
    <clipPath
       clipPathUnits="userSpaceOnUse"
       id="clipPath36">
      <path
         d="M 61.371875,35.23125 H 489.39187 v 358.52 H 61.371875 Z"
         id="path36" />
    </clipPath>
    <pattern
       patternTransform="translate(0,424.20125)"
       patternUnits="userSpaceOnUse"
       x="0"
       y="0"
       width="72"
       height="72"
       id="pattern39">
      <path
         d="M 0,0 72,0 72,72 0,72 0,0 Z"
         style="fill:#1976d2;fill-opacity:1;fill-rule:nonzero;stroke:none"
         id="path38" />
      <path
         d="m -36,36 72,72 M -32,32 40,104 M -28,28 44,100 M -24,24 48,96 M -20,20 52,92 M -16,16 56,88 M -12,12 60,84 M -8,8 64,80 M -4,4 68,76 M 0,0 72,72 M 4,-4 76,68 M 8,-8 80,64 M 12,-12 84,60 M 16,-16 88,56 M 20,-20 92,52 M 24,-24 96,48 m -68,-76 72,72 m -68,-76 72,72 m -68,-76 72,72"
         style="fill:#1976d2;fill-opacity:1;fill-rule:nonzero;stroke:#000000;stroke-opacity:1;stroke-width:1;stroke-linecap:butt;stroke-linejoin:miter;stroke-miterlimit:10;stroke-dasharray:none"
         id="path39" />
    </pattern>
    <clipPath
       clipPathUnits="userSpaceOnUse"
       id="clipPath40">
      <path
         d="M 61.371875,35.23125 H 489.39187 v 358.52 H 61.371875 Z"
         id="path40" />
    </clipPath>
    <pattern
       patternTransform="translate(0,424.20125)"
       patternUnits="userSpaceOnUse"
       x="0"
       y="0"
       width="72"
       height="72"
       id="pattern43">
      <path
         d="M 0,0 72,0 72,72 0,72 0,0 Z"
         style="fill:#0d47a1;fill-opacity:1;fill-rule:nonzero;stroke:none"
         id="path42" />
      <path
         d="m -36,36 72,72 M -32,32 40,104 M -28,28 44,100 M -24,24 48,96 M -20,20 52,92 M -16,16 56,88 M -12,12 60,84 M -8,8 64,80 M -4,4 68,76 M 0,0 72,72 M 4,-4 76,68 M 8,-8 80,64 M 12,-12 84,60 M 16,-16 88,56 M 20,-20 92,52 M 24,-24 96,48 m -68,-76 72,72 m -68,-76 72,72 m -68,-76 72,72"
         style="fill:#0d47a1;fill-opacity:1;fill-rule:nonzero;stroke:#000000;stroke-opacity:1;stroke-width:1;stroke-linecap:butt;stroke-linejoin:miter;stroke-miterlimit:10;stroke-dasharray:none"
         id="path43" />
    </pattern>
    <clipPath
       clipPathUnits="userSpaceOnUse"
       id="clipPath44">
      <path
         d="M 61.371875,35.23125 H 489.39187 v 358.52 H 61.371875 Z"
         id="path44" />
    </clipPath>
    <pattern
       patternTransform="translate(0,424.20125)"
       patternUnits="userSpaceOnUse"
       x="0"
       y="0"
       width="72"
       height="72"
       id="pattern47">
      <path
         d="M 0,0 72,0 72,72 0,72 0,0 Z"
         style="fill:#003366;fill-opacity:1;fill-rule:nonzero;stroke:none"
         id="path46" />
      <path
         d="m -36,36 72,72 M -32,32 40,104 M -28,28 44,100 M -24,24 48,96 M -20,20 52,92 M -16,16 56,88 M -12,12 60,84 M -8,8 64,80 M -4,4 68,76 M 0,0 72,72 M 4,-4 76,68 M 8,-8 80,64 M 12,-12 84,60 M 16,-16 88,56 M 20,-20 92,52 M 24,-24 96,48 m -68,-76 72,72 m -68,-76 72,72 m -68,-76 72,72"
         style="fill:#003366;fill-opacity:1;fill-rule:nonzero;stroke:#000000;stroke-opacity:1;stroke-width:1;stroke-linecap:butt;stroke-linejoin:miter;stroke-miterlimit:10;stroke-dasharray:none"
         id="path47" />
    </pattern>
    <clipPath
       clipPathUnits="userSpaceOnUse"
       id="clipPath48">
      <path
         d="M 61.371875,35.23125 H 489.39187 v 358.52 H 61.371875 Z"
         id="path48" />
    </clipPath>
  </defs>
  <sodipodi:namedview
     id="namedview1"
     pagecolor="#ffffff"
     bordercolor="#000000"
     borderopacity="0.25"
     inkscape:showpageshadow="2"
     inkscape:pageopacity="0.0"
     inkscape:pagecheckerboard="0"
     inkscape:deskcolor="#d1d1d1">
    <inkscape:page
       x="0"
       y="0"
       inkscape:label="1"
       id="page1"
       width="662.16125"
       height="565.60168"
       margin="0"
       bleed="0" />
  </sodipodi:namedview>
  <g
     id="g1"
     inkscape:groupmode="layer"
     inkscape:label="1">
    <path
       id="path1"
       d="M 0,0 H 496.62094 V 424.20125 H 0 Z"
       style="fill:#ffffff;fill-opacity:1;fill-rule:nonzero;stroke:none"
       transform="matrix(1.3333333,0,0,-1.3333333,0,565.60167)" />
    <path
       id="path2"
       d="M 61.371875,35.23125 H 489.39187 v 358.52 H 61.371875 Z"
       style="fill:#ffffff;fill-opacity:1;fill-rule:nonzero;stroke:none"
       transform="matrix(1.3333333,0,0,-1.3333333,0,565.60167)" />
    <path
       id="path3"
       d="m 104.17387,35.23125 v -3.5"
       style="fill:#000000;fill-opacity:1;fill-rule:nonzero;stroke:#000000;stroke-width:0.8;stroke-linecap:butt;stroke-linejoin:round;stroke-miterlimit:10;stroke-dasharray:none;stroke-opacity:1"
       transform="matrix(1.3333333,0,0,-1.3333333,0,565.60167)" />
    <text
       id="text3"
       xml:space="preserve"
       transform="matrix(1.3333333,0,0,1.3333333,106.8985,549.1475)"><tspan
         id="tspan3"
         style="font-variant:normal;font-weight:700;font-size:24px;font-family:'Times New Roman';writing-mode:lr-tb;fill:#000000;fill-opacity:1;fill-rule:nonzero;stroke:none"
         x="0"
         y="0">2022</tspan></text>
    <path
       id="path4"
       d="m 189.77787,35.23125 v -3.5"
       style="fill:#000000;fill-opacity:1;fill-rule:nonzero;stroke:#000000;stroke-width:0.8;stroke-linecap:butt;stroke-linejoin:round;stroke-miterlimit:10;stroke-dasharray:none;stroke-opacity:1"
       transform="matrix(1.3333333,0,0,-1.3333333,0,565.60167)" />
    <text
       id="text4"
       xml:space="preserve"
       transform="matrix(1.3333333,0,0,1.3333333,221.03717,549.1475)"><tspan
         id="tspan4"
         style="font-variant:normal;font-weight:700;font-size:24px;font-family:'Times New Roman';writing-mode:lr-tb;fill:#000000;fill-opacity:1;fill-rule:nonzero;stroke:none"
         x="0"
         y="0">2023</tspan></text>
    <path
       id="path5"
       d="m 275.38187,35.23125 v -3.5"
       style="fill:#000000;fill-opacity:1;fill-rule:nonzero;stroke:#000000;stroke-width:0.8;stroke-linecap:butt;stroke-linejoin:round;stroke-miterlimit:10;stroke-dasharray:none;stroke-opacity:1"
       transform="matrix(1.3333333,0,0,-1.3333333,0,565.60167)" />
    <text
       id="text5"
       xml:space="preserve"
       transform="matrix(1.3333333,0,0,1.3333333,335.17583,549.1475)"><tspan
         id="tspan5"
         style="font-variant:normal;font-weight:700;font-size:24px;font-family:'Times New Roman';writing-mode:lr-tb;fill:#000000;fill-opacity:1;fill-rule:nonzero;stroke:none"
         x="0"
         y="0">2024</tspan></text>
    <path
       id="path6"
       d="m 360.98587,35.23125 v -3.5"
       style="fill:#000000;fill-opacity:1;fill-rule:nonzero;stroke:#000000;stroke-width:0.8;stroke-linecap:butt;stroke-linejoin:round;stroke-miterlimit:10;stroke-dasharray:none;stroke-opacity:1"
       transform="matrix(1.3333333,0,0,-1.3333333,0,565.60167)" />
    <text
       id="text6"
       xml:space="preserve"
       transform="matrix(1.3333333,0,0,1.3333333,449.3145,549.1475)"><tspan
         id="tspan6"
         style="font-variant:normal;font-weight:700;font-size:24px;font-family:'Times New Roman';writing-mode:lr-tb;fill:#000000;fill-opacity:1;fill-rule:nonzero;stroke:none"
         x="0"
         y="0">2025</tspan></text>
    <path
       id="path7"
       d="m 446.58987,35.23125 v -3.5"
       style="fill:#000000;fill-opacity:1;fill-rule:nonzero;stroke:#000000;stroke-width:0.8;stroke-linecap:butt;stroke-linejoin:round;stroke-miterlimit:10;stroke-dasharray:none;stroke-opacity:1"
       transform="matrix(1.3333333,0,0,-1.3333333,0,565.60167)" />
    <text
       id="text7"
       xml:space="preserve"
       transform="matrix(1.3333333,0,0,1.3333333,563.45317,549.1475)"><tspan
         id="tspan7"
         style="font-variant:normal;font-weight:700;font-size:24px;font-family:'Times New Roman';writing-mode:lr-tb;fill:#000000;fill-opacity:1;fill-rule:nonzero;stroke:none"
         x="0"
         y="0">2026</tspan></text>
    <path
       id="path8"
       d="M 61.371875,35.23125 H 489.39187"
       style="fill:none;stroke:#000000;stroke-width:0.8;stroke-linecap:butt;stroke-linejoin:round;stroke-miterlimit:10;stroke-dasharray:2.96, 1.28;stroke-dashoffset:0;stroke-opacity:0.7"
       transform="matrix(1.3333333,0,0,-1.3333333,0,565.60167)"
       clip-path="url(#clipPath9)" />
    <path
       id="path10"
       d="m 61.371875,35.23125 h -3.5"
       style="fill:#000000;fill-opacity:1;fill-rule:nonzero;stroke:#000000;stroke-width:0.8;stroke-linecap:butt;stroke-linejoin:round;stroke-miterlimit:10;stroke-dasharray:none;stroke-opacity:1"
       transform="matrix(1.3333333,0,0,-1.3333333,0,565.60167)" />
    <text
       id="text10"
       xml:space="preserve"
       transform="matrix(1.3333333,0,0,1.3333333,59.1625,527.46)"><tspan
         id="tspan10"
         style="font-variant:normal;font-weight:700;font-size:20px;font-family:'Times New Roman';writing-mode:lr-tb;fill:#000000;fill-opacity:1;fill-rule:nonzero;stroke:none"
         x="0"
         y="0">0</tspan></text>
    <path
       id="path11"
       d="M 61.371875,94.984583 H 489.39187"
       style="fill:none;stroke:#000000;stroke-width:0.8;stroke-linecap:butt;stroke-linejoin:round;stroke-miterlimit:10;stroke-dasharray:2.96, 1.28;stroke-dashoffset:0;stroke-opacity:0.7"
       transform="matrix(1.3333333,0,0,-1.3333333,0,565.60167)"
       clip-path="url(#clipPath12)" />
    <path
       id="path13"
       d="m 61.371875,94.984583 h -3.5"
       style="fill:#000000;fill-opacity:1;fill-rule:nonzero;stroke:#000000;stroke-width:0.8;stroke-linecap:butt;stroke-linejoin:round;stroke-miterlimit:10;stroke-dasharray:none;stroke-opacity:1"
       transform="matrix(1.3333333,0,0,-1.3333333,0,565.60167)" />
    <text
       id="text13"
       xml:space="preserve"
       transform="matrix(1.3333333,0,0,1.3333333,59.1625,447.78889)"><tspan
         id="tspan13"
         style="font-variant:normal;font-weight:700;font-size:20px;font-family:'Times New Roman';writing-mode:lr-tb;fill:#000000;fill-opacity:1;fill-rule:nonzero;stroke:none"
         x="0"
         y="0">5</tspan></text>
    <path
       id="path14"
       d="M 61.371875,154.73792 H 489.39187"
       style="fill:none;stroke:#000000;stroke-width:0.8;stroke-linecap:butt;stroke-linejoin:round;stroke-miterlimit:10;stroke-dasharray:2.96, 1.28;stroke-dashoffset:0;stroke-opacity:0.7"
       transform="matrix(1.3333333,0,0,-1.3333333,0,565.60167)"
       clip-path="url(#clipPath15)" />
    <path
       id="path16"
       d="m 61.371875,154.73792 h -3.5"
       style="fill:#000000;fill-opacity:1;fill-rule:nonzero;stroke:#000000;stroke-width:0.8;stroke-linecap:butt;stroke-linejoin:round;stroke-miterlimit:10;stroke-dasharray:none;stroke-opacity:1"
       transform="matrix(1.3333333,0,0,-1.3333333,0,565.60167)" />
    <text
       id="text16"
       xml:space="preserve"
       transform="matrix(1.3333333,0,0,1.3333333,45.829167,368.11778)"><tspan
         id="tspan16"
         style="font-variant:normal;font-weight:700;font-size:20px;font-family:'Times New Roman';writing-mode:lr-tb;fill:#000000;fill-opacity:1;fill-rule:nonzero;stroke:none"
         x="0"
         y="0">10</tspan></text>
    <path
       id="path17"
       d="M 61.371875,214.49125 H 489.39187"
       style="fill:none;stroke:#000000;stroke-width:0.8;stroke-linecap:butt;stroke-linejoin:round;stroke-miterlimit:10;stroke-dasharray:2.96, 1.28;stroke-dashoffset:0;stroke-opacity:0.7"
       transform="matrix(1.3333333,0,0,-1.3333333,0,565.60167)"
       clip-path="url(#clipPath18)" />
    <path
       id="path19"
       d="m 61.371875,214.49125 h -3.5"
       style="fill:#000000;fill-opacity:1;fill-rule:nonzero;stroke:#000000;stroke-width:0.8;stroke-linecap:butt;stroke-linejoin:round;stroke-miterlimit:10;stroke-dasharray:none;stroke-opacity:1"
       transform="matrix(1.3333333,0,0,-1.3333333,0,565.60167)" />
    <text
       id="text19"
       xml:space="preserve"
       transform="matrix(1.3333333,0,0,1.3333333,45.829167,288.44667)"><tspan
         id="tspan19"
         style="font-variant:normal;font-weight:700;font-size:20px;font-family:'Times New Roman';writing-mode:lr-tb;fill:#000000;fill-opacity:1;fill-rule:nonzero;stroke:none"
         x="0"
         y="0">15</tspan></text>
    <path
       id="path20"
       d="M 61.371875,274.24458 H 489.39187"
       style="fill:none;stroke:#000000;stroke-width:0.8;stroke-linecap:butt;stroke-linejoin:round;stroke-miterlimit:10;stroke-dasharray:2.96, 1.28;stroke-dashoffset:0;stroke-opacity:0.7"
       transform="matrix(1.3333333,0,0,-1.3333333,0,565.60167)"
       clip-path="url(#clipPath21)" />
    <path
       id="path22"
       d="m 61.371875,274.24458 h -3.5"
       style="fill:#000000;fill-opacity:1;fill-rule:nonzero;stroke:#000000;stroke-width:0.8;stroke-linecap:butt;stroke-linejoin:round;stroke-miterlimit:10;stroke-dasharray:none;stroke-opacity:1"
       transform="matrix(1.3333333,0,0,-1.3333333,0,565.60167)" />
    <text
       id="text22"
       xml:space="preserve"
       transform="matrix(1.3333333,0,0,1.3333333,45.829167,208.77556)"><tspan
         id="tspan22"
         style="font-variant:normal;font-weight:700;font-size:20px;font-family:'Times New Roman';writing-mode:lr-tb;fill:#000000;fill-opacity:1;fill-rule:nonzero;stroke:none"
         x="0"
         y="0">20</tspan></text>
    <path
       id="path23"
       d="M 61.371875,333.99792 H 489.39187"
       style="fill:none;stroke:#000000;stroke-width:0.8;stroke-linecap:butt;stroke-linejoin:round;stroke-miterlimit:10;stroke-dasharray:2.96, 1.28;stroke-dashoffset:0;stroke-opacity:0.7"
       transform="matrix(1.3333333,0,0,-1.3333333,0,565.60167)"
       clip-path="url(#clipPath24)" />
    <path
       id="path25"
       d="m 61.371875,333.99792 h -3.5"
       style="fill:#000000;fill-opacity:1;fill-rule:nonzero;stroke:#000000;stroke-width:0.8;stroke-linecap:butt;stroke-linejoin:round;stroke-miterlimit:10;stroke-dasharray:none;stroke-opacity:1"
       transform="matrix(1.3333333,0,0,-1.3333333,0,565.60167)" />
    <text
       id="text25"
       xml:space="preserve"
       transform="matrix(1.3333333,0,0,1.3333333,45.829167,129.10444)"><tspan
         id="tspan25"
         style="font-variant:normal;font-weight:700;font-size:20px;font-family:'Times New Roman';writing-mode:lr-tb;fill:#000000;fill-opacity:1;fill-rule:nonzero;stroke:none"
         x="0"
         y="0">25</tspan></text>
    <path
       id="path26"
       d="M 61.371875,393.75125 H 489.39187"
       style="fill:none;stroke:#000000;stroke-width:0.8;stroke-linecap:butt;stroke-linejoin:round;stroke-miterlimit:10;stroke-dasharray:2.96, 1.28;stroke-dashoffset:0;stroke-opacity:0.7"
       transform="matrix(1.3333333,0,0,-1.3333333,0,565.60167)"
       clip-path="url(#clipPath27)" />
    <path
       id="path28"
       d="m 61.371875,393.75125 h -3.5"
       style="fill:#000000;fill-opacity:1;fill-rule:nonzero;stroke:#000000;stroke-width:0.8;stroke-linecap:butt;stroke-linejoin:round;stroke-miterlimit:10;stroke-dasharray:none;stroke-opacity:1"
       transform="matrix(1.3333333,0,0,-1.3333333,0,565.60167)" />
    <text
       id="text28"
       xml:space="preserve"
       transform="matrix(1.3333333,0,0,1.3333333,45.829167,49.433333)"><tspan
         id="tspan28"
         style="font-variant:normal;font-weight:700;font-size:20px;font-family:'Times New Roman';writing-mode:lr-tb;fill:#000000;fill-opacity:1;fill-rule:nonzero;stroke:none"
         x="0"
         y="0">30</tspan></text>
    <text
       id="text29"
       xml:space="preserve"
       transform="matrix(0,-1.3333333,1.3333333,0,33.079167,415.08208)"><tspan
         id="tspan29"
         style="font-variant:normal;font-weight:700;font-size:26px;font-family:'Times New Roman';writing-mode:lr-tb;fill:#000000;fill-opacity:1;fill-rule:nonzero;stroke:none"
         x="0"
         dx="0 0 0 0 0 0 -0.46875"
         y="0">Number of Papers</tspan></text>
    <path
       id="path29"
       d="m 74.212475,35.23125 h 59.922795 v 35.852 H 74.212475 Z"
       style="fill:url(#pattern31);fill-opacity:1;fill-rule:nonzero;stroke:#000000;stroke-width:1;stroke-linecap:butt;stroke-linejoin:miter;stroke-miterlimit:10;stroke-dasharray:none;stroke-opacity:1"
       transform="matrix(1.3333333,0,0,-1.3333333,0,565.60167)"
       clip-path="url(#clipPath32)" />
    <path
       id="path33"
       d="m 159.81647,35.23125 h 59.9228 v 95.60533 h -59.9228 z"
       style="fill:url(#pattern35);fill-opacity:1;fill-rule:nonzero;stroke:#000000;stroke-width:1;stroke-linecap:butt;stroke-linejoin:miter;stroke-miterlimit:10;stroke-dasharray:none;stroke-opacity:1"
       transform="matrix(1.3333333,0,0,-1.3333333,0,565.60167)"
       clip-path="url(#clipPath36)" />
    <path
       id="path37"
       d="m 245.42047,35.23125 h 59.9228 v 322.668 h -59.9228 z"
       style="fill:url(#pattern39);fill-opacity:1;fill-rule:nonzero;stroke:#000000;stroke-width:1;stroke-linecap:butt;stroke-linejoin:miter;stroke-miterlimit:10;stroke-dasharray:none;stroke-opacity:1"
       transform="matrix(1.3333333,0,0,-1.3333333,0,565.60167)"
       clip-path="url(#clipPath40)" />
    <path
       id="path41"
       d="m 331.02447,35.23125 h 59.9228 v 215.112 h -59.9228 z"
       style="fill:url(#pattern43);fill-opacity:1;fill-rule:nonzero;stroke:#000000;stroke-width:1;stroke-linecap:butt;stroke-linejoin:miter;stroke-miterlimit:10;stroke-dasharray:none;stroke-opacity:1"
       transform="matrix(1.3333333,0,0,-1.3333333,0,565.60167)"
       clip-path="url(#clipPath44)" />
    <path
       id="path45"
       d="m 416.62847,35.23125 h 59.9228 v 23.901333 h -59.9228 z"
       style="fill:url(#pattern47);fill-opacity:1;fill-rule:nonzero;stroke:#000000;stroke-width:1;stroke-linecap:butt;stroke-linejoin:miter;stroke-miterlimit:10;stroke-dasharray:none;stroke-opacity:1"
       transform="matrix(1.3333333,0,0,-1.3333333,0,565.60167)"
       clip-path="url(#clipPath48)" />
    <path
       id="path49"
       d="m 61.371875,35.23125 v 358.52"
       style="fill:none;stroke:#000000;stroke-width:1;stroke-linecap:square;stroke-linejoin:miter;stroke-miterlimit:10;stroke-dasharray:none;stroke-opacity:1"
       transform="matrix(1.3333333,0,0,-1.3333333,0,565.60167)" />
    <path
       id="path50"
       d="m 489.39187,35.23125 v 358.52"
       style="fill:none;stroke:#000000;stroke-width:1;stroke-linecap:square;stroke-linejoin:miter;stroke-miterlimit:10;stroke-dasharray:none;stroke-opacity:1"
       transform="matrix(1.3333333,0,0,-1.3333333,0,565.60167)" />
    <path
       id="path51"
       d="M 61.371875,35.23125 H 489.39187"
       style="fill:none;stroke:#000000;stroke-width:1;stroke-linecap:square;stroke-linejoin:miter;stroke-miterlimit:10;stroke-dasharray:none;stroke-opacity:1"
       transform="matrix(1.3333333,0,0,-1.3333333,0,565.60167)" />
    <path
       id="path52"
       d="M 61.371875,393.75125 H 489.39187"
       style="fill:none;stroke:#000000;stroke-width:1;stroke-linecap:square;stroke-linejoin:miter;stroke-miterlimit:10;stroke-dasharray:none;stroke-opacity:1"
       transform="matrix(1.3333333,0,0,-1.3333333,0,565.60167)" />
    <text
       id="text52"
       xml:space="preserve"
       transform="matrix(1.3333333,0,0,1.3333333,81.790417,32.6)"><tspan
         id="tspan52"
         style="font-variant:normal;font-weight:700;font-size:26px;font-family:'Times New Roman';writing-mode:lr-tb;fill:#000000;fill-opacity:1;fill-rule:nonzero;stroke:none"
         x="0"
         dx="0 0 0 0 0 0 -0.46875 0 0 0 0 0 0 0 0 0 0 0 -0.46875 -1.421875"
         y="0">Number of Related Works (2022-2026)</tspan></text>
  </g>
</svg>
