<?xml version="1.0" encoding="UTF-8" standalone="no"?>
<!-- Created with Inkscape (http://www.inkscape.org/) -->

<svg
   version="1.1"
   id="svg1"
   width="1117.6089"
   height="948.96332"
   viewBox="0 0 1117.6089 948.96332"
   sodipodi:docname="upload_uvn6qr3svr742yphdm2o5hgswg.pdf"
   xmlns:inkscape="http://www.inkscape.org/namespaces/inkscape"
   xmlns:sodipodi="http://sodipodi.sourceforge.net/DTD/sodipodi-0.dtd"
   xmlns="http://www.w3.org/2000/svg"
   xmlns:svg="http://www.w3.org/2000/svg">
  <defs
     id="defs1" />
  <sodipodi:namedview
     id="namedview1"
     pagecolor="#ffffff"
     bordercolor="#000000"
     borderopacity="0.25"
     inkscape:showpageshadow="2"
     inkscape:pageopacity="0.0"
     inkscape:pagecheckerboard="0"
     inkscape:deskcolor="#d1d1d1">
    <inkscape:page
       x="0"
       y="0"
       inkscape:label="1"
       id="page1"
       width="1117.6089"
       height="948.96332"
       margin="0"
       bleed="0" />
  </sodipodi:namedview>
  <g
     id="g1"
     inkscape:groupmode="layer"
     inkscape:label="1">
    <path
       id="path1"
       d="M 0,0 H 838.20667 V 711.7225 H 0 Z"
       style="fill:#ffffff;fill-opacity:1;fill-rule:nonzero;stroke:none"
       transform="matrix(1.3333333,0,0,-1.3333333,0,948.96333)" />
    <path
       id="path2"
       d="m 428.5248,642.63426 c -60.29531,0 -119.18612,-18.35112 -168.80819,-52.60276 C 210.09455,555.77986 172.05298,507.22339 150.67197,450.8463 L 428.5248,345.47062 Z"
       style="fill:#e3f2fd;fill-opacity:1;fill-rule:nonzero;stroke:#ffffff;stroke-width:0.5;stroke-linecap:butt;stroke-linejoin:miter;stroke-miterlimit:10;stroke-dasharray:none;stroke-opacity:1"
       transform="matrix(1.3333333,0,0,-1.3333333,0,948.96333)" />
    <path
       id="path3"
       d="m 150.67197,450.8463 c -17.05898,-44.98083 -22.94281,-93.43856 -17.14415,-141.19481 5.79866,-47.75625 23.10822,-93.39778 50.43611,-132.98906 L 428.5248,345.47062 Z"
       style="fill:#d7e3fc;fill-opacity:1;fill-rule:nonzero;stroke:#ffffff;stroke-width:0.5;stroke-linecap:butt;stroke-linejoin:miter;stroke-miterlimit:10;stroke-dasharray:none;stroke-opacity:1"
       transform="matrix(1.3333333,0,0,-1.3333333,0,948.96333)" />
    <path
       id="path4"
       d="m 183.96393,176.66243 c 20.45285,-29.63107 46.12163,-55.29985 75.7527,-75.75269 29.63107,-20.452851 62.73406,-35.351298 97.69227,-43.967721 l 71.1159,288.528601 z"
       style="fill:#bbdefb;fill-opacity:1;fill-rule:nonzero;stroke:#ffffff;stroke-width:0.5;stroke-linecap:butt;stroke-linejoin:miter;stroke-miterlimit:10;stroke-dasharray:none;stroke-opacity:1"
       transform="matrix(1.3333333,0,0,-1.3333333,0,948.96333)" />
    <path
       id="path5"
       d="m 357.4089,56.942019 c 23.27028,-5.735606 47.14922,-8.635032 71.11592,-8.63503 23.96671,10e-7 47.84564,2.899431 71.11592,8.63504 L 428.5248,345.47062 Z"
       style="fill:#90caf9;fill-opacity:1;fill-rule:nonzero;stroke:#ffffff;stroke-width:0.5;stroke-linecap:butt;stroke-linejoin:miter;stroke-miterlimit:10;stroke-dasharray:none;stroke-opacity:1"
       transform="matrix(1.3333333,0,0,-1.3333333,0,948.96333)" />
    <path
       id="path6"
       d="m 499.64074,56.942029 c 11.62455,2.865196 23.06533,6.430288 34.25976,10.675778 11.19444,4.24549 22.12207,9.163622 32.72315,14.727498 L 428.5248,345.47062 Z"
       style="fill:#64b5f6;fill-opacity:1;fill-rule:nonzero;stroke:#ffffff;stroke-width:0.5;stroke-linecap:butt;stroke-linejoin:miter;stroke-miterlimit:10;stroke-dasharray:none;stroke-opacity:1"
       transform="matrix(1.3333333,0,0,-1.3333333,0,948.96333)" />
    <path
       id="path7"
       d="m 566.62365,82.345305 c 21.22146,11.137885 41.01778,24.802295 58.95711,40.695165 17.93934,15.89287 33.8903,33.89778 47.50494,53.62199 L 428.5248,345.47062 Z"
       style="fill:#42a5f5;fill-opacity:1;fill-rule:nonzero;stroke:#ffffff;stroke-width:0.5;stroke-linecap:butt;stroke-linejoin:miter;stroke-miterlimit:10;stroke-dasharray:none;stroke-opacity:1"
       transform="matrix(1.3333333,0,0,-1.3333333,0,948.96333)" />
    <path
       id="path8"
       d="m 673.0857,176.66246 c 13.61464,19.72422 24.79323,41.02326 33.29194,63.43252 8.49871,22.40926 14.25528,45.7646 17.14414,69.55656 L 428.5248,345.47062 Z"
       style="fill:#2196f3;fill-opacity:1;fill-rule:nonzero;stroke:#ffffff;stroke-width:0.5;stroke-linecap:butt;stroke-linejoin:miter;stroke-miterlimit:10;stroke-dasharray:none;stroke-opacity:1"
       transform="matrix(1.3333333,0,0,-1.3333333,0,948.96333)" />
    <path
       id="path9"
       d="m 723.52178,309.65154 c 2.88887,23.79196 2.88886,47.84628 -1e-5,71.63824 -2.88887,23.79196 -8.64544,47.1473 -17.14416,69.55656 L 428.5248,345.47062 Z"
       style="fill:#1e88e5;fill-opacity:1;fill-rule:nonzero;stroke:#ffffff;stroke-width:0.5;stroke-linecap:butt;stroke-linejoin:miter;stroke-miterlimit:10;stroke-dasharray:none;stroke-opacity:1"
       transform="matrix(1.3333333,0,0,-1.3333333,0,948.96333)" />
    <path
       id="path10"
       d="m 706.37761,450.84634 c -8.49871,22.40926 -19.67731,43.7083 -33.29196,63.43251 -13.61464,19.72421 -29.56561,37.72912 -47.50494,53.62198 L 428.5248,345.47062 Z"
       style="fill:#1976d2;fill-opacity:1;fill-rule:nonzero;stroke:#ffffff;stroke-width:0.5;stroke-linecap:butt;stroke-linejoin:miter;stroke-miterlimit:10;stroke-dasharray:none;stroke-opacity:1"
       transform="matrix(1.3333333,0,0,-1.3333333,0,948.96333)" />
    <path
       id="path11"
       d="m 625.58071,567.90083 c -17.93934,15.89287 -37.73566,29.55727 -58.95713,40.69515 -21.22146,11.13788 -43.71264,19.66766 -66.98292,25.40326 L 428.5248,345.47062 Z"
       style="fill:#1565c0;fill-opacity:1;fill-rule:nonzero;stroke:#ffffff;stroke-width:0.5;stroke-linecap:butt;stroke-linejoin:miter;stroke-miterlimit:10;stroke-dasharray:none;stroke-opacity:1"
       transform="matrix(1.3333333,0,0,-1.3333333,0,948.96333)" />
    <path
       id="path12"
       d="m 499.64066,633.99924 c -11.62455,2.86519 -23.41164,5.02525 -35.29679,6.46837 -11.88516,1.44312 -23.84668,2.16665 -35.81913,2.16665 l 6e-5,-297.16364 z"
       style="fill:#0d47a1;fill-opacity:1;fill-rule:nonzero;stroke:#ffffff;stroke-width:0.5;stroke-linecap:butt;stroke-linejoin:miter;stroke-miterlimit:10;stroke-dasharray:none;stroke-opacity:1"
       transform="matrix(1.3333333,0,0,-1.3333333,0,948.96333)" />
    <text
       id="text12"
       xml:space="preserve"
       transform="matrix(1.3333333,0,0,1.3333333,235.11439,137.41738)"><tspan
         id="tspan12"
         style="font-variant:normal;font-weight:700;font-size:26px;font-family:'Times New Roman';writing-mode:lr-tb;fill:#000000;fill-opacity:1;fill-rule:nonzero;stroke:none"
         x="0"
         y="0">NDSS</tspan></text>
    <text
       id="text13"
       xml:space="preserve"
       transform="matrix(1.3333333,0,0,1.3333333,354.63767,233.45007)"><tspan
         id="tspan13"
         style="font-variant:normal;font-weight:700;font-size:20px;font-family:'Times New Roman';writing-mode:lr-tb;fill:#000000;fill-opacity:1;fill-rule:nonzero;stroke:none"
         x="0"
         y="0">19.2%</tspan></text>
    <text
       id="text14"
       xml:space="preserve"
       transform="matrix(1.3333333,0,0,1.3333333,9.6,548.64139)"><tspan
         id="tspan14"
         style="font-variant:normal;font-weight:700;font-size:26px;font-family:'Times New Roman';writing-mode:lr-tb;fill:#000000;fill-opacity:1;fill-rule:nonzero;stroke:none"
         x="0"
         y="0">NeurIPS</tspan></text>
    <text
       id="text15"
       xml:space="preserve"
       transform="matrix(1.3333333,0,0,1.3333333,220.03629,532.52207)"><tspan
         id="tspan15"
         style="font-variant:normal;font-weight:700;font-size:20px;font-family:'Times New Roman';writing-mode:lr-tb;fill:#000000;fill-opacity:1;fill-rule:nonzero;stroke:none"
         x="0"
         y="0">15.4%</tspan></text>
    <text
       id="text16"
       xml:space="preserve"
       transform="matrix(1.3333333,0,0,1.3333333,229.38525,854.79597)"><tspan
         id="tspan16"
         style="font-variant:normal;font-weight:700;font-size:26px;font-family:'Times New Roman';writing-mode:lr-tb;fill:#000000;fill-opacity:1;fill-rule:nonzero;stroke:none"
         x="0"
         y="0">ICML</tspan></text>
    <text
       id="text17"
       xml:space="preserve"
       transform="matrix(1.3333333,0,0,1.3333333,355.38768,755.17995)"><tspan
         id="tspan17"
         style="font-variant:normal;font-weight:700;font-size:20px;font-family:'Times New Roman';writing-mode:lr-tb;fill:#000000;fill-opacity:1;fill-rule:nonzero;stroke:none"
         x="0"
         dx="0 -1.09375"
         y="0">11.5%</tspan></text>
    <text
       id="text18"
       xml:space="preserve"
       transform="matrix(1.3333333,0,0,1.3333333,571.36643,931.94667)"><tspan
         id="tspan18"
         style="font-variant:normal;font-weight:700;font-size:26px;font-family:'Times New Roman';writing-mode:lr-tb;fill:#000000;fill-opacity:1;fill-rule:nonzero;stroke:none"
         x="0"
         y="0">IEEE S&amp;P</tspan></text>
    <text
       id="text19"
       xml:space="preserve"
       transform="matrix(1.3333333,0,0,1.3333333,541.36642,811.28955)"><tspan
         id="tspan19"
         style="font-variant:normal;font-weight:700;font-size:20px;font-family:'Times New Roman';writing-mode:lr-tb;fill:#000000;fill-opacity:1;fill-rule:nonzero;stroke:none"
         x="0"
         y="0">7.7%</tspan></text>
    <text
       id="text20"
       xml:space="preserve"
       transform="matrix(1.3333333,0,0,1.3333333,769.47549,892.32485)"><tspan
         id="tspan20"
         style="font-variant:normal;font-weight:700;font-size:26px;font-family:'Times New Roman';writing-mode:lr-tb;fill:#000000;fill-opacity:1;fill-rule:nonzero;stroke:none"
         x="0"
         y="0">AAAI</tspan></text>
    <text
       id="text21"
       xml:space="preserve"
       transform="matrix(1.3333333,0,0,1.3333333,653.76715,790.69134)"><tspan
         id="tspan21"
         style="font-variant:normal;font-weight:700;font-size:20px;font-family:'Times New Roman';writing-mode:lr-tb;fill:#000000;fill-opacity:1;fill-rule:nonzero;stroke:none"
         x="0"
         y="0">3.8%</tspan></text>
    <text
       id="text22"
       xml:space="preserve"
       transform="matrix(1.3333333,0,0,1.3333333,860.38181,822.33756)"><tspan
         id="tspan22"
         style="font-variant:normal;font-weight:700;font-size:26px;font-family:'Times New Roman';writing-mode:lr-tb;fill:#000000;fill-opacity:1;fill-rule:nonzero;stroke:none"
         x="0"
         y="0">ICLR</tspan></text>
    <text
       id="text23"
       xml:space="preserve"
       transform="matrix(1.3333333,0,0,1.3333333,751.55943,731.57383)"><tspan
         id="tspan23"
         style="font-variant:normal;font-weight:700;font-size:20px;font-family:'Times New Roman';writing-mode:lr-tb;fill:#000000;fill-opacity:1;fill-rule:nonzero;stroke:none"
         x="0"
         y="0">7.7%</tspan></text>
    <text
       id="text24"
       xml:space="preserve"
       transform="matrix(1.3333333,0,0,1.3333333,978.8839,650.65761)"><tspan
         id="tspan24"
         style="font-variant:normal;font-weight:700;font-size:26px;font-family:'Times New Roman';writing-mode:lr-tb;fill:#000000;fill-opacity:1;fill-rule:nonzero;stroke:none"
         x="0"
         y="0">SIGSAC</tspan></text>
    <text
       id="text25"
       xml:space="preserve"
       transform="matrix(1.3333333,0,0,1.3333333,837.74276,606.71569)"><tspan
         id="tspan25"
         style="font-variant:normal;font-weight:700;font-size:20px;font-family:'Times New Roman';writing-mode:lr-tb;fill:#000000;fill-opacity:1;fill-rule:nonzero;stroke:none"
         x="0"
         y="0">7.7%</tspan></text>
    <text
       id="text26"
       xml:space="preserve"
       transform="matrix(1.3333333,0,0,1.3333333,1004.0286,443.5719)"><tspan
         id="tspan26"
         style="font-variant:normal;font-weight:700;font-size:26px;font-family:'Times New Roman';writing-mode:lr-tb;fill:#000000;fill-opacity:1;fill-rule:nonzero;stroke:none"
         x="0"
         y="0">ICCV</tspan></text>
    <text
       id="text27"
       xml:space="preserve"
       transform="matrix(1.3333333,0,0,1.3333333,856.02984,456.1079)"><tspan
         id="tspan27"
         style="font-variant:normal;font-weight:700;font-size:20px;font-family:'Times New Roman';writing-mode:lr-tb;fill:#000000;fill-opacity:1;fill-rule:nonzero;stroke:none"
         x="0"
         y="0">7.7%</tspan></text>
    <text
       id="text28"
       xml:space="preserve"
       transform="matrix(1.3333333,0,0,1.3333333,930.05565,248.52127)"><tspan
         id="tspan28"
         style="font-variant:normal;font-weight:700;font-size:26px;font-family:'Times New Roman';writing-mode:lr-tb;fill:#000000;fill-opacity:1;fill-rule:nonzero;stroke:none"
         x="0"
         y="0">DAC</tspan></text>
    <text
       id="text29"
       xml:space="preserve"
       transform="matrix(1.3333333,0,0,1.3333333,802.23131,314.2529)"><tspan
         id="tspan29"
         style="font-variant:normal;font-weight:700;font-size:20px;font-family:'Times New Roman';writing-mode:lr-tb;fill:#000000;fill-opacity:1;fill-rule:nonzero;stroke:none"
         x="0"
         y="0">7.7%</tspan></text>
    <text
       id="text30"
       xml:space="preserve"
       transform="matrix(1.3333333,0,0,1.3333333,773.91128,110.18948)"><tspan
         id="tspan30"
         style="font-variant:normal;font-weight:700;font-size:26px;font-family:'Times New Roman';writing-mode:lr-tb;fill:#000000;fill-opacity:1;fill-rule:nonzero;stroke:none"
         x="0"
         y="0">TIFS</tspan></text>
    <text
       id="text31"
       xml:space="preserve"
       transform="matrix(1.3333333,0,0,1.3333333,688.67177,213.64795)"><tspan
         id="tspan31"
         style="font-variant:normal;font-weight:700;font-size:20px;font-family:'Times New Roman';writing-mode:lr-tb;fill:#000000;fill-opacity:1;fill-rule:nonzero;stroke:none"
         x="0"
         y="0">7.7%</tspan></text>
    <text
       id="text32"
       xml:space="preserve"
       transform="matrix(1.3333333,0,0,1.3333333,531.74458,91.964121)"><tspan
         id="tspan32"
         style="font-variant:normal;font-weight:700;font-size:26px;font-family:'Times New Roman';writing-mode:lr-tb;fill:#000000;fill-opacity:1;fill-rule:nonzero;stroke:none"
         x="0"
         y="0">USENIX</tspan></text>
    <text
       id="text33"
       xml:space="preserve"
       transform="matrix(1.3333333,0,0,1.3333333,579.5734,179.65155)"><tspan
         id="tspan33"
         style="font-variant:normal;font-weight:700;font-size:20px;font-family:'Times New Roman';writing-mode:lr-tb;fill:#000000;fill-opacity:1;fill-rule:nonzero;stroke:none"
         x="0"
         y="0">3.8%</tspan></text>
    <text
       id="text34"
       xml:space="preserve"
       transform="matrix(1.3333333,0,0,1.3333333,243.28319,42.141667)"><tspan
         id="tspan34"
         style="font-variant:normal;font-weight:700;font-size:36px;font-family:'Times New Roman';writing-mode:lr-tb;fill:#000000;fill-opacity:1;fill-rule:nonzero;stroke:none"
         x="0"
         dx="0 0 0 0 0 0 0 0 0 0 0 0 0 0 0 0 0 0 0 0 0 0 0 0 0 0 -0.640625 -3.296875"
         y="0">Distribution of Papers by Venue</tspan></text>
  </g>
</svg>
